# xmcd CD database file
#
# Track frame offsets:
#	150
#	20260
#	28925
#	40843
#	60593
#	68188
#	78586
#
# Disc length: 1118 seconds
#
# Revision: 0
# Processed by: cddbd v1.5.1PL0 Copyright (c) Steve Scherf et al.
# Submitted via: CDex 1.51
#
DISCID=55045c07
DTITLE=Stan Getz and Astrud Gilberto - The Music of Stan Getz and Astrud Gilberto
DYEAR=1997
DGENRE=Jazz
TTITLE0=Aqua de beber
TTITLE1=So danco samba
TTITLE2=Telephone song
TTITLE3=Dindi
TTITLE4=O Pato
TTITLE5=Voce e eu
TTITLE6=Aqua de beber (Reprise)
EXTD=YEAR: 1997
EXTT0=
EXTT1=
EXTT2=
EXTT3=
EXTT4=
EXTT5=
EXTT6=
PLAYORDER=
